<mxfile host="app.diagrams.net" agent="Mozilla/5.0 (Windows NT 10.0; Win64; x64) AppleWebKit/537.36 (KHTML, like Gecko) Chrome/137.0.0.0 Safari/537.36" version="27.2.0">
  <diagram name="boxhead_fchart" id="6KX26guDDPaY39B74i2X">
    <mxGraphModel dx="2505" dy="2083" grid="1" gridSize="10" guides="1" tooltips="1" connect="1" arrows="1" fold="1" page="1" pageScale="1" pageWidth="827" pageHeight="1169" math="0" shadow="0">
      <root>
        <mxCell id="0" />
        <mxCell id="1" parent="0" />
        <mxCell id="Gasr81SHCPXjBcsPBj6n-26" style="edgeStyle=orthogonalEdgeStyle;rounded=0;orthogonalLoop=1;jettySize=auto;html=1;entryX=0.5;entryY=1;entryDx=0;entryDy=0;" edge="1" parent="1" source="Gasr81SHCPXjBcsPBj6n-1" target="Gasr81SHCPXjBcsPBj6n-23">
          <mxGeometry relative="1" as="geometry" />
        </mxCell>
        <mxCell id="Gasr81SHCPXjBcsPBj6n-1" value="unit" style="rounded=0;whiteSpace=wrap;html=1;" vertex="1" parent="1">
          <mxGeometry x="40" y="40" width="120" height="60" as="geometry" />
        </mxCell>
        <mxCell id="Gasr81SHCPXjBcsPBj6n-8" style="edgeStyle=orthogonalEdgeStyle;rounded=0;orthogonalLoop=1;jettySize=auto;html=1;entryX=1;entryY=0.5;entryDx=0;entryDy=0;" edge="1" parent="1" source="Gasr81SHCPXjBcsPBj6n-2" target="Gasr81SHCPXjBcsPBj6n-1">
          <mxGeometry relative="1" as="geometry" />
        </mxCell>
        <mxCell id="Gasr81SHCPXjBcsPBj6n-2" value="player" style="rounded=0;whiteSpace=wrap;html=1;" vertex="1" parent="1">
          <mxGeometry x="200" y="40" width="120" height="60" as="geometry" />
        </mxCell>
        <mxCell id="Gasr81SHCPXjBcsPBj6n-9" style="edgeStyle=orthogonalEdgeStyle;rounded=0;orthogonalLoop=1;jettySize=auto;html=1;entryX=1;entryY=0.5;entryDx=0;entryDy=0;" edge="1" parent="1" source="Gasr81SHCPXjBcsPBj6n-3" target="Gasr81SHCPXjBcsPBj6n-1">
          <mxGeometry relative="1" as="geometry" />
        </mxCell>
        <mxCell id="Gasr81SHCPXjBcsPBj6n-3" value="zombie" style="rounded=0;whiteSpace=wrap;html=1;" vertex="1" parent="1">
          <mxGeometry x="200" y="120" width="120" height="60" as="geometry" />
        </mxCell>
        <mxCell id="Gasr81SHCPXjBcsPBj6n-7" style="edgeStyle=orthogonalEdgeStyle;rounded=0;orthogonalLoop=1;jettySize=auto;html=1;exitX=0;exitY=0.5;exitDx=0;exitDy=0;" edge="1" parent="1" source="Gasr81SHCPXjBcsPBj6n-4">
          <mxGeometry relative="1" as="geometry">
            <mxPoint x="320" y="150" as="targetPoint" />
          </mxGeometry>
        </mxCell>
        <mxCell id="Gasr81SHCPXjBcsPBj6n-4" value="normal" style="rounded=0;whiteSpace=wrap;html=1;" vertex="1" parent="1">
          <mxGeometry x="360" y="120" width="120" height="60" as="geometry" />
        </mxCell>
        <mxCell id="Gasr81SHCPXjBcsPBj6n-6" style="edgeStyle=orthogonalEdgeStyle;rounded=0;orthogonalLoop=1;jettySize=auto;html=1;entryX=1;entryY=0.5;entryDx=0;entryDy=0;" edge="1" parent="1" source="Gasr81SHCPXjBcsPBj6n-5" target="Gasr81SHCPXjBcsPBj6n-3">
          <mxGeometry relative="1" as="geometry" />
        </mxCell>
        <mxCell id="Gasr81SHCPXjBcsPBj6n-5" value="boss&lt;div&gt;(투사체 발사)&lt;/div&gt;" style="rounded=0;whiteSpace=wrap;html=1;" vertex="1" parent="1">
          <mxGeometry x="360" y="200" width="120" height="60" as="geometry" />
        </mxCell>
        <mxCell id="Gasr81SHCPXjBcsPBj6n-10" value="GameLogic" style="ellipse;whiteSpace=wrap;html=1;aspect=fixed;" vertex="1" parent="1">
          <mxGeometry x="60" y="440" width="80" height="80" as="geometry" />
        </mxCell>
        <mxCell id="Gasr81SHCPXjBcsPBj6n-11" value="Camera&lt;div&gt;funcs&lt;/div&gt;" style="ellipse;whiteSpace=wrap;html=1;aspect=fixed;" vertex="1" parent="1">
          <mxGeometry x="460" y="440" width="80" height="80" as="geometry" />
        </mxCell>
        <mxCell id="Gasr81SHCPXjBcsPBj6n-12" value="Main" style="ellipse;whiteSpace=wrap;html=1;aspect=fixed;" vertex="1" parent="1">
          <mxGeometry x="260" y="260" width="80" height="80" as="geometry" />
        </mxCell>
        <mxCell id="Gasr81SHCPXjBcsPBj6n-13" value="Weapons" style="rounded=0;whiteSpace=wrap;html=1;" vertex="1" parent="1">
          <mxGeometry x="560" y="240" width="120" height="60" as="geometry" />
        </mxCell>
        <mxCell id="Gasr81SHCPXjBcsPBj6n-15" style="edgeStyle=orthogonalEdgeStyle;rounded=0;orthogonalLoop=1;jettySize=auto;html=1;entryX=1;entryY=0.5;entryDx=0;entryDy=0;" edge="1" parent="1" source="Gasr81SHCPXjBcsPBj6n-14" target="Gasr81SHCPXjBcsPBj6n-13">
          <mxGeometry relative="1" as="geometry" />
        </mxCell>
        <mxCell id="Gasr81SHCPXjBcsPBj6n-14" value="installation type" style="rounded=0;whiteSpace=wrap;html=1;" vertex="1" parent="1">
          <mxGeometry x="720" y="240" width="120" height="60" as="geometry" />
        </mxCell>
        <mxCell id="Gasr81SHCPXjBcsPBj6n-51" style="edgeStyle=orthogonalEdgeStyle;rounded=0;orthogonalLoop=1;jettySize=auto;html=1;exitX=0.5;exitY=0;exitDx=0;exitDy=0;entryX=0.5;entryY=1;entryDx=0;entryDy=0;" edge="1" parent="1" source="Gasr81SHCPXjBcsPBj6n-19" target="Gasr81SHCPXjBcsPBj6n-12">
          <mxGeometry relative="1" as="geometry" />
        </mxCell>
        <mxCell id="Gasr81SHCPXjBcsPBj6n-19" value="GameManager&lt;div&gt;(SingleTone)&lt;/div&gt;" style="rounded=0;whiteSpace=wrap;html=1;" vertex="1" parent="1">
          <mxGeometry x="240" y="360" width="120" height="60" as="geometry" />
        </mxCell>
        <mxCell id="Gasr81SHCPXjBcsPBj6n-20" value="draw" style="ellipse;whiteSpace=wrap;html=1;aspect=fixed;" vertex="1" parent="1">
          <mxGeometry x="160" y="440" width="80" height="80" as="geometry" />
        </mxCell>
        <mxCell id="Gasr81SHCPXjBcsPBj6n-21" value="Render" style="ellipse;whiteSpace=wrap;html=1;aspect=fixed;" vertex="1" parent="1">
          <mxGeometry x="260" y="440" width="80" height="80" as="geometry" />
        </mxCell>
        <mxCell id="Gasr81SHCPXjBcsPBj6n-22" value="Update&lt;div&gt;Data&lt;/div&gt;" style="ellipse;whiteSpace=wrap;html=1;aspect=fixed;" vertex="1" parent="1">
          <mxGeometry x="360" y="440" width="80" height="80" as="geometry" />
        </mxCell>
        <mxCell id="Gasr81SHCPXjBcsPBj6n-23" value="factory&lt;div&gt;Method&lt;/div&gt;&lt;div&gt;Pattern&lt;/div&gt;" style="ellipse;whiteSpace=wrap;html=1;aspect=fixed;" vertex="1" parent="1">
          <mxGeometry x="60" y="-100" width="80" height="80" as="geometry" />
        </mxCell>
        <mxCell id="Gasr81SHCPXjBcsPBj6n-25" style="edgeStyle=orthogonalEdgeStyle;rounded=0;orthogonalLoop=1;jettySize=auto;html=1;exitX=0.5;exitY=1;exitDx=0;exitDy=0;entryX=0.5;entryY=0;entryDx=0;entryDy=0;" edge="1" parent="1" source="Gasr81SHCPXjBcsPBj6n-24" target="Gasr81SHCPXjBcsPBj6n-23">
          <mxGeometry relative="1" as="geometry" />
        </mxCell>
        <mxCell id="Gasr81SHCPXjBcsPBj6n-24" value="Prototype&lt;div&gt;Pattern&lt;/div&gt;" style="ellipse;whiteSpace=wrap;html=1;aspect=fixed;" vertex="1" parent="1">
          <mxGeometry x="60" y="-210" width="80" height="80" as="geometry" />
        </mxCell>
        <mxCell id="Gasr81SHCPXjBcsPBj6n-27" value="유닛을 생성하는 부분을&lt;div&gt;팩토리메소드와 프로토타입패턴을 통해&lt;/div&gt;&lt;div&gt;따로 뺄것&lt;/div&gt;" style="text;html=1;align=center;verticalAlign=middle;resizable=0;points=[];autosize=1;strokeColor=none;fillColor=none;" vertex="1" parent="1">
          <mxGeometry x="120" y="-140" width="220" height="60" as="geometry" />
        </mxCell>
        <mxCell id="Gasr81SHCPXjBcsPBj6n-50" style="edgeStyle=orthogonalEdgeStyle;rounded=0;orthogonalLoop=1;jettySize=auto;html=1;entryX=1;entryY=0.5;entryDx=0;entryDy=0;" edge="1" parent="1" source="Gasr81SHCPXjBcsPBj6n-30" target="Gasr81SHCPXjBcsPBj6n-13">
          <mxGeometry relative="1" as="geometry" />
        </mxCell>
        <mxCell id="Gasr81SHCPXjBcsPBj6n-30" value="Gun type" style="rounded=0;whiteSpace=wrap;html=1;" vertex="1" parent="1">
          <mxGeometry x="720" y="160" width="120" height="60" as="geometry" />
        </mxCell>
        <mxCell id="Gasr81SHCPXjBcsPBj6n-49" style="edgeStyle=orthogonalEdgeStyle;rounded=0;orthogonalLoop=1;jettySize=auto;html=1;entryX=1;entryY=0.5;entryDx=0;entryDy=0;" edge="1" parent="1" source="Gasr81SHCPXjBcsPBj6n-31" target="Gasr81SHCPXjBcsPBj6n-13">
          <mxGeometry relative="1" as="geometry" />
        </mxCell>
        <mxCell id="Gasr81SHCPXjBcsPBj6n-31" value="Projetile type" style="rounded=0;whiteSpace=wrap;html=1;" vertex="1" parent="1">
          <mxGeometry x="720" y="20" width="120" height="60" as="geometry" />
        </mxCell>
        <mxCell id="Gasr81SHCPXjBcsPBj6n-47" style="edgeStyle=orthogonalEdgeStyle;rounded=0;orthogonalLoop=1;jettySize=auto;html=1;entryX=1;entryY=0.5;entryDx=0;entryDy=0;" edge="1" parent="1" source="Gasr81SHCPXjBcsPBj6n-33" target="Gasr81SHCPXjBcsPBj6n-14">
          <mxGeometry relative="1" as="geometry" />
        </mxCell>
        <mxCell id="Gasr81SHCPXjBcsPBj6n-33" value="Fake Wall" style="rounded=0;whiteSpace=wrap;html=1;" vertex="1" parent="1">
          <mxGeometry x="880" y="320" width="120" height="60" as="geometry" />
        </mxCell>
        <mxCell id="Gasr81SHCPXjBcsPBj6n-46" style="edgeStyle=orthogonalEdgeStyle;rounded=0;orthogonalLoop=1;jettySize=auto;html=1;entryX=1;entryY=0.5;entryDx=0;entryDy=0;" edge="1" parent="1" source="Gasr81SHCPXjBcsPBj6n-34" target="Gasr81SHCPXjBcsPBj6n-14">
          <mxGeometry relative="1" as="geometry" />
        </mxCell>
        <mxCell id="Gasr81SHCPXjBcsPBj6n-34" value="barrel" style="rounded=0;whiteSpace=wrap;html=1;" vertex="1" parent="1">
          <mxGeometry x="880" y="240" width="120" height="60" as="geometry" />
        </mxCell>
        <mxCell id="Gasr81SHCPXjBcsPBj6n-48" style="edgeStyle=orthogonalEdgeStyle;rounded=0;orthogonalLoop=1;jettySize=auto;html=1;entryX=1;entryY=0.5;entryDx=0;entryDy=0;" edge="1" parent="1" source="Gasr81SHCPXjBcsPBj6n-35" target="Gasr81SHCPXjBcsPBj6n-14">
          <mxGeometry relative="1" as="geometry" />
        </mxCell>
        <mxCell id="Gasr81SHCPXjBcsPBj6n-35" value="Claymore" style="rounded=0;whiteSpace=wrap;html=1;" vertex="1" parent="1">
          <mxGeometry x="880" y="400" width="120" height="60" as="geometry" />
        </mxCell>
        <mxCell id="Gasr81SHCPXjBcsPBj6n-45" style="edgeStyle=orthogonalEdgeStyle;rounded=0;orthogonalLoop=1;jettySize=auto;html=1;entryX=1;entryY=0.5;entryDx=0;entryDy=0;" edge="1" parent="1" source="Gasr81SHCPXjBcsPBj6n-36" target="Gasr81SHCPXjBcsPBj6n-30">
          <mxGeometry relative="1" as="geometry">
            <Array as="points">
              <mxPoint x="1020" y="270" />
              <mxPoint x="1020" y="190" />
            </Array>
          </mxGeometry>
        </mxCell>
        <mxCell id="Gasr81SHCPXjBcsPBj6n-36" value="uzi" style="rounded=0;whiteSpace=wrap;html=1;" vertex="1" parent="1">
          <mxGeometry x="1040" y="240" width="120" height="60" as="geometry" />
        </mxCell>
        <mxCell id="Gasr81SHCPXjBcsPBj6n-43" style="edgeStyle=orthogonalEdgeStyle;rounded=0;orthogonalLoop=1;jettySize=auto;html=1;entryX=1;entryY=0.5;entryDx=0;entryDy=0;" edge="1" parent="1" source="Gasr81SHCPXjBcsPBj6n-37" target="Gasr81SHCPXjBcsPBj6n-30">
          <mxGeometry relative="1" as="geometry" />
        </mxCell>
        <mxCell id="Gasr81SHCPXjBcsPBj6n-37" value="shotgun" style="rounded=0;whiteSpace=wrap;html=1;" vertex="1" parent="1">
          <mxGeometry x="1040" y="160" width="120" height="60" as="geometry" />
        </mxCell>
        <mxCell id="Gasr81SHCPXjBcsPBj6n-44" style="edgeStyle=orthogonalEdgeStyle;rounded=0;orthogonalLoop=1;jettySize=auto;html=1;entryX=1;entryY=0.5;entryDx=0;entryDy=0;" edge="1" parent="1" source="Gasr81SHCPXjBcsPBj6n-38" target="Gasr81SHCPXjBcsPBj6n-30">
          <mxGeometry relative="1" as="geometry" />
        </mxCell>
        <mxCell id="Gasr81SHCPXjBcsPBj6n-38" value="Pistol" style="rounded=0;whiteSpace=wrap;html=1;" vertex="1" parent="1">
          <mxGeometry x="1040" y="80" width="120" height="60" as="geometry" />
        </mxCell>
        <mxCell id="Gasr81SHCPXjBcsPBj6n-42" style="edgeStyle=orthogonalEdgeStyle;rounded=0;orthogonalLoop=1;jettySize=auto;html=1;entryX=1;entryY=0.5;entryDx=0;entryDy=0;" edge="1" parent="1" source="Gasr81SHCPXjBcsPBj6n-39" target="Gasr81SHCPXjBcsPBj6n-31">
          <mxGeometry relative="1" as="geometry" />
        </mxCell>
        <mxCell id="Gasr81SHCPXjBcsPBj6n-39" value="Granade" style="rounded=0;whiteSpace=wrap;html=1;" vertex="1" parent="1">
          <mxGeometry x="880" y="20" width="120" height="60" as="geometry" />
        </mxCell>
        <mxCell id="Gasr81SHCPXjBcsPBj6n-41" style="edgeStyle=orthogonalEdgeStyle;rounded=0;orthogonalLoop=1;jettySize=auto;html=1;entryX=1;entryY=0.5;entryDx=0;entryDy=0;" edge="1" parent="1" source="Gasr81SHCPXjBcsPBj6n-40" target="Gasr81SHCPXjBcsPBj6n-31">
          <mxGeometry relative="1" as="geometry" />
        </mxCell>
        <mxCell id="Gasr81SHCPXjBcsPBj6n-40" value="Rocket" style="rounded=0;whiteSpace=wrap;html=1;" vertex="1" parent="1">
          <mxGeometry x="880" y="-60" width="120" height="60" as="geometry" />
        </mxCell>
        <mxCell id="Gasr81SHCPXjBcsPBj6n-52" value="Collison" style="ellipse;whiteSpace=wrap;html=1;aspect=fixed;" vertex="1" parent="1">
          <mxGeometry x="-340" y="550" width="80" height="80" as="geometry" />
        </mxCell>
        <mxCell id="Gasr81SHCPXjBcsPBj6n-53" value="Move" style="ellipse;whiteSpace=wrap;html=1;aspect=fixed;" vertex="1" parent="1">
          <mxGeometry x="-240" y="550" width="80" height="80" as="geometry" />
        </mxCell>
        <mxCell id="Gasr81SHCPXjBcsPBj6n-54" value="Death" style="ellipse;whiteSpace=wrap;html=1;aspect=fixed;" vertex="1" parent="1">
          <mxGeometry x="-140" y="550" width="80" height="80" as="geometry" />
        </mxCell>
        <mxCell id="Gasr81SHCPXjBcsPBj6n-55" value="&lt;div&gt;Attacked&lt;/div&gt;" style="ellipse;whiteSpace=wrap;html=1;aspect=fixed;" vertex="1" parent="1">
          <mxGeometry x="-440" y="550" width="80" height="80" as="geometry" />
        </mxCell>
        <mxCell id="Gasr81SHCPXjBcsPBj6n-56" value="&lt;div&gt;Check&lt;/div&gt;&lt;div&gt;/Change&lt;/div&gt;State" style="ellipse;whiteSpace=wrap;html=1;aspect=fixed;" vertex="1" parent="1">
          <mxGeometry x="-540" y="550" width="80" height="80" as="geometry" />
        </mxCell>
        <mxCell id="Gasr81SHCPXjBcsPBj6n-58" value="Delete&lt;div&gt;Unit&lt;/div&gt;" style="ellipse;whiteSpace=wrap;html=1;aspect=fixed;" vertex="1" parent="1">
          <mxGeometry x="-40" y="550" width="80" height="80" as="geometry" />
        </mxCell>
        <mxCell id="Gasr81SHCPXjBcsPBj6n-59" value="Generate&lt;br&gt;&lt;div&gt;Unit&lt;/div&gt;" style="ellipse;whiteSpace=wrap;html=1;aspect=fixed;" vertex="1" parent="1">
          <mxGeometry x="60" y="550" width="80" height="80" as="geometry" />
        </mxCell>
        <mxCell id="Gasr81SHCPXjBcsPBj6n-60" value="Unit목록은&lt;div&gt;List??Map??&lt;/div&gt;" style="rounded=0;whiteSpace=wrap;html=1;" vertex="1" parent="1">
          <mxGeometry x="-120" y="40" width="120" height="60" as="geometry" />
        </mxCell>
        <mxCell id="Gasr81SHCPXjBcsPBj6n-61" value="Delay" style="ellipse;whiteSpace=wrap;html=1;aspect=fixed;" vertex="1" parent="1">
          <mxGeometry x="160" y="550" width="80" height="80" as="geometry" />
        </mxCell>
        <mxCell id="Gasr81SHCPXjBcsPBj6n-62" value="nuckback" style="ellipse;whiteSpace=wrap;html=1;aspect=fixed;" vertex="1" parent="1">
          <mxGeometry x="260" y="550" width="80" height="80" as="geometry" />
        </mxCell>
        <mxCell id="Gasr81SHCPXjBcsPBj6n-63" value="공격 판정&lt;div&gt;박스 - 라인&lt;/div&gt;&lt;div&gt;박스 - 박스&lt;/div&gt;&lt;div&gt;박스 - 투사체&lt;/div&gt;&lt;div&gt;박스- 원형범위&lt;/div&gt;" style="text;html=1;align=left;verticalAlign=middle;whiteSpace=wrap;rounded=0;" vertex="1" parent="1">
          <mxGeometry x="-380" y="610" width="160" height="130" as="geometry" />
        </mxCell>
        <mxCell id="Gasr81SHCPXjBcsPBj6n-64" value="score" style="ellipse;whiteSpace=wrap;html=1;aspect=fixed;" vertex="1" parent="1">
          <mxGeometry x="360" y="550" width="80" height="80" as="geometry" />
        </mxCell>
        <mxCell id="Gasr81SHCPXjBcsPBj6n-65" value="&lt;div&gt;교수님 github&lt;/div&gt;https://github.com/magotoolivesource/WinWPI_FrameWork" style="text;html=1;align=center;verticalAlign=middle;resizable=0;points=[];autosize=1;strokeColor=none;fillColor=none;" vertex="1" parent="1">
          <mxGeometry x="-170" y="140" width="340" height="40" as="geometry" />
        </mxCell>
      </root>
    </mxGraphModel>
  </diagram>
</mxfile>
